<?xml version="1.0" standalone="no"?>
<!DOCTYPE svg PUBLIC "-//W3C//DTD SVG 20010904//EN"
 "http://www.w3.org/TR/2001/REC-SVG-20010904/DTD/svg10.dtd">
<svg version="1.0" xmlns="http://www.w3.org/2000/svg"
 width="256.000000pt" height="256.000000pt" viewBox="0 0 256.000000 256.000000"
 preserveAspectRatio="xMidYMid meet">
<metadata>
Created by potrace 1.16, written by Peter Selinger 2001-2019
</metadata>
<g transform="translate(0.000000,256.000000) scale(0.100000,-0.100000)"
fill="#fff" fill-rule="evenodd" stroke="none">
<path d="M0,0 2560,0 2560,2560 0,2560 Z M0 1280 l0 -1280 1280 0 1280 0 0 1280 0 1280 -1280 0 -1280 0 0
-1280z m1426 1149 c522 -72 920 -498 975 -1042 35 -351 -105 -722 -364 -964
-377 -350 -933 -401 -1357 -123 -178 117 -313 272 -406 465 -160 331 -160 699
0 1030 214 444 679 700 1152 634z M1087 2294 c-184 -40 -342 -123 -480 -254
-143 -135 -242 -303 -294 -498 -24 -86 -27 -116 -27 -262 0 -146 3 -176 27
-262 52 -194 149 -360 291 -496 187 -179 417 -272 676 -272 259 0 489 93 676
272 142 136 239 302 291 496 24 86 27 116 27 262 0 146 -3 176 -27 262 -104
388 -400 674 -780 752 -95 20 -288 20 -380 0z m443 -518 c0 -7 -252 -447 -255
-444 -10 11 -245 432 -245 439 0 5 113 9 250 9 138 0 250 -2 250 -4z m-371
-324 l20 -39 -51 -12 c-123 -28 -260 -124 -328 -231 -90 -141 -93 -336 -7
-483 14 -24 55 -71 91 -104 109 -103 240 -153 396 -153 156 0 287 50 396 153
36 33 77 80 91 104 86 147 83 342 -7 483 -68 106 -202 201 -325 231 -27 6 -51
13 -53 15 -5 3 26 62 37 68 14 9 147 -39 209 -76 31 -18 86 -62 122 -98 107
-107 162 -235 162 -384 1 -150 -53 -277 -167 -391 -249 -250 -681 -250 -930 0
-114 114 -167 238 -167 390 0 150 54 277 162 385 76 75 150 122 247 155 37 13
71 24 75 24 4 1 16 -16 27 -37z m236 -167 c132 -35 240 -121 294 -235 23 -48
26 -68 26 -155 0 -90 -3 -106 -29 -160 -60 -122 -188 -213 -333 -236 -195 -32
-396 68 -479 236 -26 54 -29 70 -29 160 0 87 3 107 26 155 88 187 316 289 524
235z M1182 1682 c14 -33 91 -162 96 -162 7 0 92 153 92 164 0 3 -43 6 -96 6
-53 0 -94 -3 -92 -8z M1180 1206 c-76 -21 -180 -86 -180 -112 0 -6 63 -43 140
-83 l140 -72 140 72 c77 40 140 77 140 83 0 6 -15 23 -33 37 -97 78 -231 107
-347 75z"/>
</g>
</svg>
