<?xml version="1.0" standalone="no"?>
<!DOCTYPE svg PUBLIC "-//W3C//DTD SVG 20010904//EN"
 "http://www.w3.org/TR/2001/REC-SVG-20010904/DTD/svg10.dtd">
<svg version="1.0" xmlns="http://www.w3.org/2000/svg"
 width="256.000000pt" height="256.000000pt" viewBox="0 0 256.000000 256.000000"
 preserveAspectRatio="xMidYMid meet">
<metadata>
Created by potrace 1.16, written by Peter Selinger 2001-2019
</metadata>
<g transform="translate(0.000000,256.000000) scale(0.100000,-0.100000)"
fill="#fff" fill-rule="evenodd" stroke="none">
<path d="M0,0 2560,0 2560,2560 0,2560 Z M0 1280 l0 -1280 1280 0 1280 0 0 1280 0 1280 -1280 0 -1280 0 0
-1280z m1433 1114 c137 -35 256 -120 336 -239 219 -328 55 -757 -334 -871 -80
-23 -230 -23 -310 0 -389 114 -553 543 -334 871 78 116 188 196 324 236 78 23
236 24 318 3z m232 -1313 c385 -100 628 -432 613 -836 l-3 -80 -75 0 -75 0 -6
145 c-6 156 -23 221 -84 326 -44 76 -169 193 -252 237 -131 68 -188 77 -503
77 -315 0 -372 -9 -503 -77 -83 -44 -208 -161 -252 -237 -61 -105 -78 -170
-84 -326 l-6 -145 -75 0 -75 0 1 130 c2 157 19 236 79 360 97 201 273 349 494
415 106 32 195 39 476 35 213 -3 262 -6 330 -24z M1148 2241 c-81 -26 -139
-63 -191 -121 -193 -215 -125 -537 140 -663 64 -30 74 -32 183 -32 109 0 119
2 183 32 265 126 333 448 140 663 -25 28 -65 62 -90 76 -107 63 -252 81 -365
45z"/>
</g>
</svg>
