<?xml version="1.0" standalone="no"?>
<!DOCTYPE svg PUBLIC "-//W3C//DTD SVG 20010904//EN"
 "http://www.w3.org/TR/2001/REC-SVG-20010904/DTD/svg10.dtd">
<svg version="1.0" xmlns="http://www.w3.org/2000/svg"
 width="256.000000pt" height="256.000000pt" viewBox="0 0 256.000000 256.000000"
 preserveAspectRatio="xMidYMid meet">
<metadata>
Created by potrace 1.16, written by Peter Selinger 2001-2019
</metadata>
<g transform="translate(0.000000,256.000000) scale(0.100000,-0.100000)"
fill="#fff" fill-rule="evenodd" stroke="none">
<path d="M0,0 2560,0 2560,2560 0,2560 Z M0 1280 l0 -1280 1280 0 1280 0 0 1280 0 1280 -1280 0 -1280 0 0
-1280z m1387 1091 c87 -44 133 -134 133 -261 0 -36 7 -120 15 -187 70 -563
289 -1127 615 -1583 l82 -115 -33 -27 c-40 -33 -32 -40 -134 107 -203 291
-350 587 -472 950 -59 177 -64 159 -17 -67 63 -301 182 -603 340 -864 60 -99
63 -107 47 -120 -28 -22 -54 -36 -59 -31 -17 17 -140 234 -188 333 l-59 121
-42 -81 c-23 -44 -48 -91 -55 -103 -14 -21 -12 -26 30 -69 25 -25 72 -66 105
-91 33 -25 59 -50 57 -56 -2 -6 -12 -23 -23 -39 l-21 -28 -41 32 c-23 17 -72
58 -109 90 l-66 58 -69 -85 c-37 -47 -71 -85 -74 -85 -3 0 -18 13 -33 29 l-27
28 78 101 c95 122 167 241 209 346 l32 78 -25 72 c-13 39 -35 109 -48 156 -18
65 -25 80 -30 63 -43 -141 -155 -353 -266 -503 -71 -97 -234 -264 -326 -333
l-62 -47 -20 28 c-11 16 -21 33 -23 39 -2 6 24 31 57 56 33 25 79 65 103 90
l43 44 -53 101 c-49 94 -68 119 -68 91 0 -28 -197 -393 -236 -438 -3 -3 -74
38 -74 44 0 2 29 51 64 109 158 261 277 561 339 861 22 105 46 274 31 220 -3
-11 -26 -82 -51 -158 -109 -337 -266 -653 -468 -942 -102 -147 -94 -140 -134
-107 l-33 27 82 115 c362 506 591 1143 629 1751 9 144 20 179 70 232 69 75
186 96 278 48z M1208 2288 c-47 -27 -59 -52 -20 -41 36 10 149 10 187 0 l29
-8 -19 21 c-48 53 -116 64 -177 28z M1209 2161 c-72 -23 -83 -43 -48 -92 61
-86 202 -77 246 17 17 35 17 36 -2 50 -41 31 -137 42 -196 25z M1127 1720 c-3
-135 -11 -287 -18 -338 -15 -113 -4 -198 42 -336 33 -99 116 -276 129 -276 13
0 96 177 129 276 46 138 57 224 42 336 -7 51 -15 203 -18 339 l-5 245 -46 -23
c-62 -31 -142 -31 -204 0 l-45 23 -6 -246z M1029 998 c-6 -29 -27 -97 -45
-151 -31 -92 -32 -100 -19 -137 20 -57 105 -220 115 -220 4 0 40 41 78 92 l70
92 -30 50 c-40 69 -93 183 -120 261 -13 36 -26 65 -29 65 -4 0 -13 -24 -20
-52z"/>
</g>
</svg>
